<svg xmlns="http://www.w3.org/2000/svg" viewBox="0 0 64 64"><rect width="64" height="64" rx="15" fill="#14171f"/><rect x=".75" y=".75" width="62.5" height="62.5" rx="14.5" fill="none" stroke="#2c3240" stroke-width="1.5"/><g fill="none" stroke="#f1f5f9" stroke-width="3" stroke-linecap="round" stroke-linejoin="round"><rect x="17" y="8" width="37" height="48" rx="3"/><path d="M17 17.6H54M17 27.2H54M17 36.8H54M17 46.4H54"/></g><circle cx="46" cy="12.8" r="3.99" fill="#ff3b3b" opacity=".35"/><circle cx="46" cy="12.8" r="2.1" fill="#ff3b3b"/><circle cx="46" cy="22.4" r="3.99" fill="#ff3b3b" opacity=".35"/><circle cx="46" cy="22.4" r="2.1" fill="#ff3b3b"/><circle cx="46" cy="41.6" r="3.99" fill="#ff3b3b" opacity=".35"/><circle cx="46" cy="41.6" r="2.1" fill="#ff3b3b"/><circle cx="46" cy="51.2" r="3.99" fill="#ff3b3b" opacity=".35"/><circle cx="46" cy="51.2" r="2.1" fill="#ff3b3b"/><rect x="5" y="29.3" width="33" height="5.4" rx="1.6" fill="#ffffff"/><circle cx="33" cy="32" r="2.99" fill="#05060a"/><circle cx="33" cy="32" r="2.27" fill="#22ff66"/></svg>